<svg width="87" height="94" viewBox="0 0 87 94" fill="none" xmlns="http://www.w3.org/2000/svg">
<path d="M1.97021 34.5383V59.5123C1.97143 62.9723 2.88299 66.3712 4.61335 69.3675C6.34371 72.3639 8.83196 74.8522 11.8282 76.5827L33.4558 89.0672C36.452 90.7982 39.8512 91.7095 43.3114 91.7095C46.7717 91.7095 50.1709 90.7982 53.1671 89.0672L74.7899 76.5827C77.7868 74.8529 80.2756 72.3648 82.006 69.3683C83.7365 66.3718 84.6476 62.9725 84.6479 59.5123V34.5383C84.6482 31.0786 83.7373 27.6797 82.0068 24.6839C80.2762 21.6881 77.7871 19.2009 74.7899 17.4727L53.1861 4.98332C50.1892 3.2547 46.7903 2.34473 43.3305 2.34473C39.8707 2.34473 36.4718 3.2547 33.4749 4.98332L11.8282 17.4727C8.83168 19.2016 6.34309 21.689 4.61262 24.6846C2.88216 27.6803 1.97082 31.0788 1.97021 34.5383Z" stroke="#FBF9F6" stroke-width="3.32" stroke-miterlimit="10"/>
<path d="M31.1628 40.3588L83.9709 30.7534" stroke="#FBF9F6" stroke-width="3.32" stroke-miterlimit="10"/>
<path d="M42.9467 2.38525L24.1221 59.3644" stroke="#FBF9F6" stroke-width="3.32" stroke-miterlimit="10"/>
<path d="M2.93799 54.0303L72.1872 77.455" stroke="#FBF9F6" stroke-width="3.32" stroke-miterlimit="10"/>
</svg>
