<svg width="153" height="66" viewBox="0 0 153 66" fill="none" xmlns="http://www.w3.org/2000/svg">
<path d="M17.3135 40.33V25.2626C15.6466 25.8864 13.8899 26.2362 12.1115 26.2983C13.0662 26.9265 13.0662 28.2043 13.0662 30.2452V40.33C13.0662 42.7815 12.7816 43.7774 11.9585 44.2585C12.9193 44.234 14.1372 44.2156 15.1868 44.2156C16.2364 44.2156 17.4512 44.234 18.412 44.2585C17.5981 43.7774 17.3135 42.7876 17.3135 40.33Z" fill="#414042"/>
<path d="M15.196 22.4525C16.4965 22.4525 17.439 21.5792 17.439 20.3718C17.4534 20.073 17.4053 19.7745 17.2977 19.4955C17.19 19.2164 17.0253 18.963 16.8141 18.7514C16.6029 18.5399 16.3498 18.375 16.0711 18.2672C15.7925 18.1594 15.4944 18.1112 15.196 18.1257C13.9934 18.1257 13.1183 19.0695 13.1183 20.3718C13.115 20.646 13.1665 20.918 13.2697 21.172C13.373 21.4259 13.5259 21.6566 13.7195 21.8504C13.9131 22.0443 14.1434 22.1975 14.397 22.3009C14.6506 22.4043 14.9222 22.4558 15.196 22.4525Z" fill="#414042"/>
<path d="M52.9747 40.3299V31.3789C52.9747 27.0888 51.0469 25.0143 47.0812 25.0143C45.4594 25.0143 42.9961 25.4494 40.4624 27.5117L40.0156 27.8856L39.7372 27.383C38.8651 25.8202 37.2433 25.0265 34.9146 25.0265C33.0593 25.0248 31.2503 25.6069 29.7432 26.6905C30.5859 26.1519 31.5649 25.8659 32.5645 25.8662C35.7255 25.8662 36.362 27.9806 36.362 31.382V40.333C36.362 42.7845 36.0774 43.7804 35.2543 44.2615C36.2151 44.237 37.4299 44.2186 38.4795 44.2186C39.5291 44.2186 40.747 44.237 41.7078 44.2615C40.8816 43.7804 40.6001 42.7906 40.6001 40.333V31.3789C40.6332 30.3098 40.4725 29.2436 40.1258 28.2319L40.0065 27.9254L40.2604 27.7048C40.7562 27.2727 42.5401 25.8662 44.6883 25.8662C48.0543 25.8662 48.7366 27.9806 48.7366 31.382V40.333C48.7366 42.7845 48.4521 43.7804 47.6289 44.2615C48.5898 44.237 49.8046 44.2186 50.8572 44.2186C51.9099 44.2186 53.1216 44.237 54.0825 44.2615C53.2593 43.7773 52.9747 42.7875 52.9747 40.3299Z" fill="#414042"/>
<path d="M28.152 27.9531V25.2626C26.4852 25.8867 24.7285 26.2365 22.95 26.2983C23.9047 26.9265 23.9047 28.2043 23.9047 30.2452V40.33C23.9047 42.7815 23.6201 43.7774 22.797 44.2585C23.7578 44.234 24.9727 44.2156 26.0222 44.2156C27.0718 44.2156 28.2897 44.234 29.2505 44.2585C28.4243 43.7774 28.1398 42.7876 28.1398 40.33V28.0358L28.2744 27.8857" fill="#414042"/>
<path d="M63.1309 27.4045V25.2594C61.464 25.8833 59.7073 26.2331 57.9289 26.2952C58.8836 26.9234 58.8836 28.2012 58.8836 30.2421V49.7773C58.8836 52.2288 58.599 53.2247 57.7759 53.7089C58.7337 53.6844 59.9454 53.666 61.0011 53.666C62.0568 53.666 63.2716 53.6844 64.2294 53.7089C63.4063 53.2247 63.1217 52.238 63.1217 49.7773V42.809L63.8775 43.3361C65.0675 44.1105 66.4643 44.5048 67.8831 44.4668C73.3727 44.4668 77.5098 40.2319 77.5098 34.6149C77.5098 28.998 73.8103 25.0143 68.5134 25.0143C67.1142 25.0114 65.7479 25.4393 64.5997 26.24C65.5137 25.6942 66.562 25.4151 67.626 25.4341C72.1579 25.4341 72.6842 30.6742 72.6842 34.6272C72.6842 38.7119 72.1518 44.142 67.5434 44.142C65.4993 44.142 63.8959 43.2227 63.2135 42.3034L63.1186 42.1716V27.4934L63.2472 27.3555" fill="#414042"/>
<path d="M92.4762 25.0143C90.7963 25.0143 89.7375 25.906 87.3875 28.2533C87.9532 27.7686 88.6717 27.4995 89.4162 27.4933C90.7994 27.4933 91.5582 28.3115 91.6837 29.9448H95.8055C95.7045 26.7119 94.554 25.0143 92.4762 25.0143Z" fill="#414042"/>
<path d="M86.5 25.2626C84.8331 25.8864 83.0764 26.2362 81.298 26.2983C82.2527 26.9265 82.2527 28.2043 82.2527 30.2452V40.33C82.2527 42.7815 81.9682 43.7774 81.145 44.2585C82.1059 44.234 83.3207 44.2156 84.3733 44.2156C85.426 44.2156 86.6377 44.234 87.5986 44.2585C86.7754 43.7774 86.4908 42.7876 86.4908 40.33L86.5 25.2626Z" fill="#414042"/>
<path d="M102.088 22.4525C103.388 22.4525 104.331 21.5792 104.331 20.3718C104.345 20.073 104.297 19.7745 104.189 19.4955C104.082 19.2164 103.917 18.963 103.706 18.7514C103.495 18.5399 103.242 18.375 102.963 18.2672C102.684 18.1594 102.386 18.1112 102.088 18.1257C100.882 18.1257 100.01 19.0695 100.01 20.3718C100.007 20.646 100.058 20.918 100.161 21.172C100.265 21.4259 100.418 21.6566 100.611 21.8504C100.805 22.0443 101.035 22.1975 101.289 22.3009C101.542 22.4043 101.814 22.4558 102.088 22.4525Z" fill="#414042"/>
<path d="M104.205 40.33V25.2626C102.538 25.8864 100.782 26.2362 99.0032 26.2983C99.9579 26.9265 99.9579 28.2043 99.9579 30.2452V40.33C99.9579 42.7815 99.6734 43.7774 98.8502 44.2585C99.8111 44.234 101.026 44.2156 102.079 44.2156C103.131 44.2156 104.343 44.234 105.304 44.2585C104.49 43.7774 104.205 42.7876 104.205 40.33Z" fill="#414042"/>
<path d="M115.028 27.9592V25.2626C113.362 25.8867 111.605 26.2365 109.826 26.2983C110.784 26.9265 110.784 28.2043 110.784 30.2452V40.33C110.784 42.7815 110.5 43.7774 109.673 44.2585C110.634 44.234 111.852 44.2156 112.902 44.2156C113.951 44.2156 115.166 44.234 116.127 44.2585C115.304 43.7774 115.019 42.7876 115.019 40.33V28.0358L115.154 27.8949" fill="#414042"/>
<path d="M127.908 40.3299V31.379C127.908 25.6762 124.398 25.0143 121.761 25.0143C119.818 25.0087 117.93 25.6561 116.399 26.8529C117.28 26.2262 118.33 25.8821 119.41 25.8662C122.275 25.8662 123.667 27.6742 123.667 31.382V40.333C123.667 42.7845 123.385 43.7804 122.559 44.2615C123.52 44.237 124.738 44.2186 125.787 44.2186C126.837 44.2186 128.055 44.237 129.013 44.2615C128.193 43.7773 127.908 42.7876 127.908 40.3299Z" fill="#414042"/>
<path d="M137.982 38.2279V27.0307H141.525C142.027 26.0747 142.461 25.3668 142.868 24.7386C141.95 25.2258 140.864 25.2258 139.723 25.2258H137.982V24.7417C137.982 22.5721 138.083 20.0471 138.229 18.5762L138.055 18.5394C137.293 21.2207 135.607 24.6681 131.892 27.0307H133.743V39.1104C133.743 43.5384 136.675 44.4669 139.132 44.4669C139.879 44.4946 140.62 44.3149 141.272 43.9478C141.923 43.5806 142.461 43.0402 142.826 42.3862C142.585 42.6267 142.298 42.8158 141.983 42.9422C141.667 43.0686 141.329 43.1296 140.99 43.1217C138.337 43.1217 137.982 40.6487 137.982 38.2279Z" fill="#414042"/>
</svg>
