<svg id="Layer_1" data-name="Layer 1" xmlns="http://www.w3.org/2000/svg" viewBox="0 0 86 92.68"><defs><style>.cls-1{opacity:0.5;}.cls-2{fill:none;stroke:#414042;stroke-miterlimit:10;stroke-width:3.32px;}</style></defs><g class="cls-1"><path class="cls-2" d="M2,34.54v25a19.68,19.68,0,0,0,9.86,17.07L33.46,89.07a19.71,19.71,0,0,0,19.71,0L74.79,76.58a19.68,19.68,0,0,0,9.86-17.07v-25a19.68,19.68,0,0,0-9.86-17.07L53.19,5A19.73,19.73,0,0,0,33.47,5L11.83,17.47A19.68,19.68,0,0,0,2,34.54Z" transform="translate(-0.31 -0.68)"/><path class="cls-2" d="M31.16,40.36,84,30.75" transform="translate(-0.31 -0.68)"/><path class="cls-2" d="M43,2.39l-18.83,57" transform="translate(-0.31 -0.68)"/><path class="cls-2" d="M2.94,54,72.19,77.45" transform="translate(-0.31 -0.68)"/></g></svg>